<?xml version="1.0" encoding="utf-8"?>
<!-- Generator: Adobe Illustrator 21.0.2, SVG Export Plug-In . SVG Version: 6.00 Build 0)  -->
<svg version="1.1" id="Layer_1" xmlns="http://www.w3.org/2000/svg" xmlns:xlink="http://www.w3.org/1999/xlink" x="0px" y="0px"
	 viewBox="0 0 700 250" style="enable-background:new 0 0 700 250;" xml:space="preserve">
<style type="text/css">
	.st0{fill:#FEFEFE;}
	.st1{font-family:'OpenSans-Light';}
	.st2{font-size:41px;}
	.st3{letter-spacing:6;}
</style>
<g>
	<g>
		<polygon class="st0" points="160.8,175.3 140.8,175.3 140.8,85.3 160.8,75.3 		"/>
	</g>
	<g>
		<polygon class="st0" points="300.8,175.3 280.8,175.3 280.8,85.3 300.8,75.3 		"/>
	</g>
	<polygon class="st0" points="180.8,85.3 200.8,85.3 220.8,130.3 240.8,85.3 260.8,85.3 220.8,175.3 	"/>
	<path class="st0" d="M104.2,142c-5.4,8.1-14.5,13.4-25,13.4c-16.6,0-30-13.4-30-30s13.4-30,30-30c10.4,0,19.6,5.3,25,13.4
		l16.6-11.1c-9-13.4-24.2-22.3-41.6-22.3c-27.6,0-50,22.4-50,50c0,27.6,22.4,50,50,50c17.4,0,32.6-8.8,41.6-22.3L104.2,142z"/>
	<path class="st0" d="M395.8,142c-5.4,8.1-14.5,13.4-25,13.4c-16.6,0-30-13.4-30-30s13.4-30,30-30c10.4,0,19.6,5.3,25,13.4
		l16.6-11.1c-9-13.4-24.2-22.3-41.6-22.3c-27.6,0-50,22.4-50,50c0,27.6,22.4,50,50,50c17.4,0,32.6-8.8,41.6-22.3L395.8,142z"/>
	<path class="st0" d="M560.8,75.3l-14.3,7.1c-7.5-4.5-16.3-7.1-25.7-7.1c-27.6,0-50,22.4-50,50c0,27.6,22.4,50,50,50
		c7.1,0,13.9-1.5,20-4.2v4.2h20V75.3z M520.8,155.3c-16.6,0-30-13.4-30-30s13.4-30,30-30c7.7,0,14.7,2.9,20,7.7v44.7
		C535.5,152.4,528.5,155.3,520.8,155.3z"/>
	<polygon class="st0" points="450.8,25.3 430.8,35.3 430.8,175.3 450.8,175.3 	"/>
	<path class="st0" d="M580.8,175.3h20v-4.2c6.1,2.7,12.9,4.2,20,4.2c27.6,0,50-22.4,50-50c0-27.6-22.4-50-50-50
		c-7.1,0-13.9,1.5-20,4.2V35.3l-20-10V175.3z M600.8,147.7V103c5.3-4.8,12.3-7.7,20-7.7c16.6,0,30,13.4,30,30s-13.4,30-30,30
		C613.1,155.3,606.1,152.4,600.8,147.7z"/>
</g>
<text transform="matrix(1 0 0 1 230.2769 224.1937)" class="st1 st2 st3">BRUSSELS</text>
</svg>
